<svg xmlns="http://www.w3.org/2000/svg" width="20" height="16" fill="none"><path fill="#5A65F2" d="M16.942 1.886A17.058 17.058 0 0 0 12.816.668a11.05 11.05 0 0 0-.529 1.03 16.116 16.116 0 0 0-4.573.001C7.571 1.376 7.36.969 7.18.668c-1.448.235-2.834.65-4.129 1.221C.44 5.596-.269 9.212.085 12.776a16.916 16.916 0 0 0 5.06 2.436c.408-.527.771-1.087 1.084-1.677a10.97 10.97 0 0 1-1.706-.78 8.4 8.4 0 0 0 .418-.312c3.29 1.447 6.866 1.447 10.118 0 .137.108.277.212.418.312-.54.306-1.113.568-1.71.781.314.59.675 1.15 1.084 1.677a16.884 16.884 0 0 0 5.064-2.437c.415-4.132-.71-7.714-2.973-10.89ZM6.678 10.584c-.988 0-1.798-.867-1.798-1.922S5.672 6.74 6.678 6.74c1.005 0 1.815.867 1.798 1.923.001 1.055-.793 1.922-1.798 1.922Zm6.644 0c-.988 0-1.798-.867-1.798-1.922s.793-1.923 1.798-1.923 1.816.867 1.798 1.923c0 1.055-.793 1.922-1.798 1.922Z"/></svg>