<svg xmlns="http://www.w3.org/2000/svg" width="16" height="16" fill="none"><path fill="currentColor" d="M12.629 3.923a11.371 11.371 0 0 0-2.751-.812 7.372 7.372 0 0 0-.353.688 10.744 10.744 0 0 0-3.048 0 7.173 7.173 0 0 0-.357-.688c-.966.157-1.89.434-2.753.814-1.74 2.472-2.212 4.882-1.976 7.258a11.278 11.278 0 0 0 3.373 1.624c.272-.35.514-.724.723-1.118a7.308 7.308 0 0 1-1.138-.52c.095-.066.189-.136.279-.207 2.194.964 4.578.964 6.745 0 .091.071.185.14.28.207-.362.204-.743.38-1.14.521.208.393.45.767.722 1.118a11.255 11.255 0 0 0 3.376-1.625c.276-2.754-.473-5.142-1.982-7.26ZM5.786 9.722c-.659 0-1.199-.578-1.199-1.281 0-.704.529-1.282 1.199-1.282s1.21.577 1.198 1.282c.001.703-.528 1.28-1.198 1.28Zm4.43 0c-.66 0-1.2-.578-1.2-1.281 0-.704.53-1.282 1.2-1.282.67 0 1.21.577 1.198 1.282 0 .703-.528 1.28-1.198 1.28Z"/></svg>